# xmcd CD database file
#
# Track frame offsets:
#	150
#	31858
#	60728
#	87871
#	122075
#	147178
#	191724
#	230836
#	264068
#
# Disc length: 3722 seconds
#
# Revision: 0
# Processed by: cddbd v1.5.2PL0 Copyright (c) Steve Scherf et al.
# Submitted via: CDex 1.51
#
DISCID=760e8809
DTITLE=Jeff Alkire - On Summer in Winters
DYEAR=2007
DGENRE=Jazz
TTITLE0=At This Moment
TTITLE1=Pancakes
TTITLE2=One Summer in Winters
TTITLE3=Why
TTITLE4=Weaver of Dreams
TTITLE5=Panama
TTITLE6=All the Things You Are
TTITLE7=Barbara
TTITLE8=November
EXTD=YEAR: 2007
EXTT0=
EXTT1=
EXTT2=
EXTT3=
EXTT4=
EXTT5=
EXTT6=
EXTT7=
EXTT8=
PLAYORDER=
